<svg width="178" height="31" viewBox="0 0 178 31" fill="none" xmlns="http://www.w3.org/2000/svg">
<path d="M36.5797 9.26862C35.9728 9.68236 35.3962 10.192 34.8449 10.7823L33.1 16.292L30.8797 23.3003L28.6493 16.2567L26.9802 10.9841C26.429 10.3938 25.6804 9.6874 25.0735 9.27367C23.7889 8.39574 22.3677 7.86091 20.8099 7.66413H19.9602L23.6776 18.1892L28.2042 30.9998H33.5754L39.1743 15.071L41.7031 7.65909H40.8534C39.2957 7.86091 37.8694 8.39574 36.5898 9.26862H36.5797Z" fill="white"/>
<path d="M16.4857 10.2275C15.7574 9.47062 14.8066 8.85506 13.6281 8.38078C12.7886 8.04272 11.863 7.83081 10.8565 7.7299C10.4469 7.68953 10.0271 7.66431 9.58706 7.66431C7.97366 7.66431 6.40579 7.96704 4.87837 8.56746C3.36107 9.16788 2.0309 10.0155 0.877756 11.1104L1.15087 11.3526C2.44058 12.2406 3.84155 12.8108 5.34873 13.0429C5.53081 13.0731 5.71794 13.0933 5.90002 13.1135C6.09727 13.0176 6.29452 12.9369 6.48671 12.8713C7.29088 12.5938 8.07482 12.4576 8.83347 12.4576C10.3963 12.4576 11.5899 12.836 12.4244 13.5878C13.2539 14.3396 13.6737 15.7372 13.6737 17.0188H10.5328C9.09647 17.0188 7.75618 17.1701 6.50694 17.4729C5.2577 17.7756 4.1703 18.2348 3.23463 18.8503C2.30402 19.4659 1.5656 20.2328 1.02443 21.1511C0.483258 22.0694 0.210144 23.1441 0.210144 24.3752C0.210144 25.354 0.382105 26.2471 0.720969 27.0544C1.05983 27.8617 1.54537 28.558 2.17758 29.1483C2.80979 29.7386 3.55326 30.1927 4.40801 30.5055C5.26275 30.8184 6.22371 30.9798 7.28076 30.9798C8.41368 30.9798 9.51625 30.8537 10.5885 30.6014C11.6607 30.3491 12.6722 29.895 13.6332 29.2442V29.8849V31L14.4323 30.7124C15.8333 30.006 17.0016 29.0524 17.9272 27.8415C18.3672 27.2713 18.7465 26.6306 19.0752 25.9191V17.8715C19.0752 16.0349 18.8831 14.6221 18.4987 13.4415C18.1092 12.2608 17.4416 11.1912 16.4908 10.2375L16.4857 10.2275ZM13.6332 24.9756C12.824 25.4549 12.0249 25.8182 11.2308 26.0705C10.4367 26.3228 9.63764 26.4489 8.82841 26.4489C7.8978 26.4489 7.13409 26.2118 6.54234 25.7325C5.9506 25.2531 5.65219 24.6376 5.65219 23.8858C5.65219 23.356 5.79887 22.9069 6.08715 22.5285C6.37544 22.1501 6.76994 21.8423 7.26053 21.6052C7.75113 21.368 8.33276 21.1965 9.00037 21.0956C9.66798 20.9947 10.3811 20.9442 11.1347 20.9442H13.6281V24.9807L13.6332 24.9756Z" fill="white"/>
<path d="M84.4052 12.5131C83.9702 11.5898 83.4341 10.8026 82.7867 10.177C82.1141 9.52612 81.3554 9.02156 80.526 8.65828C80.3439 8.56746 80.1618 8.47664 79.9646 8.39591C79.125 8.04777 78.1994 7.83081 77.193 7.7299C76.7833 7.68953 76.3635 7.66431 75.9235 7.66431C74.3101 7.66431 72.4944 7.88631 70.972 8.50187C70.9316 8.51701 70.5978 8.64819 70.4764 8.69865C70.3702 8.74406 70.1375 8.84497 69.9959 8.92065C68.6657 9.61694 67.5682 10.5756 66.6781 11.7563C66.3797 12.1498 66.1116 12.5787 65.8638 13.0429C65.6463 13.4465 65.53 13.8956 65.53 14.3547V30.9748H70.9923V21.7919L71.0024 17.9169V15.5354C71.0074 14.5162 71.5638 13.5575 72.4742 13.1286C72.4742 13.1286 72.4741 13.1286 72.4792 13.1286C72.5905 13.0832 72.7119 13.0227 72.8231 12.9823C73.2126 12.8461 73.5919 12.7452 73.9712 12.6745C74.0016 12.6695 74.037 12.6645 74.0673 12.6594C74.3101 12.614 74.9271 12.5585 75.1699 12.5585C75.1699 12.5585 75.4885 12.5585 75.6402 12.5736C76.1915 12.614 76.7732 12.6695 77.3548 12.8865C77.8505 13.0731 78.5181 13.4717 78.9277 13.8804C79.2717 14.2235 79.5903 14.7432 79.7319 15.0762C79.8533 15.3689 79.9292 15.7221 79.9544 15.9794C79.9949 16.3427 79.9797 16.928 79.9797 16.928V30.995L80.5917 30.7679C80.7131 30.7124 80.8345 30.662 80.9559 30.6065C82.2759 29.895 83.3835 28.9515 84.2737 27.7709C84.5721 27.3773 84.8402 26.9484 85.088 26.4842C85.3055 26.0806 85.4218 25.6315 85.4218 25.1724V17.5284C85.4218 16.1509 85.2903 15.0762 84.9312 13.8653C84.83 13.5121 84.5367 12.8057 84.4153 12.5181L84.4052 12.5131Z" fill="white"/>
<path d="M118.959 19.7383C118.342 19.1631 117.629 18.6586 116.815 18.2247C116 17.7907 115.141 17.4325 114.225 17.155C112.819 16.7211 111.742 16.2872 110.988 15.8532C110.235 15.4193 109.86 14.9097 109.86 14.3244C109.86 13.9914 109.957 13.6937 110.159 13.4263C110.356 13.1589 110.609 12.942 110.918 12.7755C111.226 12.609 111.56 12.4828 111.914 12.392C112.273 12.3012 112.612 12.2558 112.93 12.2558C113.866 12.2558 114.731 12.4879 115.52 12.947C116.309 13.4062 117.012 14.0318 117.629 14.824L120.81 11.4939C118.737 8.94083 116.066 7.66431 112.804 7.66431C111.792 7.66431 110.791 7.81567 109.805 8.12345C108.819 8.43123 107.933 8.87019 107.155 9.44539C106.376 10.0206 105.749 10.732 105.263 11.5898C104.783 12.4475 104.54 13.4062 104.54 14.4809C104.54 15.4496 104.727 16.3073 105.096 17.044C105.465 17.7857 105.956 18.4416 106.573 19.0168C107.19 19.592 107.893 20.0764 108.682 20.4699C109.471 20.8635 110.285 21.1914 111.12 21.4437C112.551 21.8776 113.659 22.3166 114.448 22.7657C115.237 23.2147 115.631 23.7697 115.631 24.4307C115.631 25.0917 115.353 25.5458 114.802 25.8636C114.245 26.1815 113.553 26.343 112.713 26.343C111.752 26.343 110.852 26.1058 110.012 25.6366C109.173 25.1673 108.434 24.5064 107.792 23.6638L104.575 27.0342C105.612 28.4116 106.816 29.4157 108.186 30.0414C109.557 30.667 111.059 30.9798 112.688 30.9798C113.649 30.9798 114.625 30.8335 115.616 30.5409C116.602 30.2482 117.492 29.8143 118.287 29.2391C119.076 28.6639 119.718 27.9525 120.214 27.0948C120.709 26.2421 120.957 25.2632 120.957 24.1683C120.957 23.25 120.78 22.4276 120.421 21.701C120.062 20.9745 119.576 20.3236 118.959 19.7484V19.7383Z" fill="white"/>
<path d="M153.407 2.14941C152.38 3.58235 152.082 5.42902 151.864 8.15867C151.849 8.36554 151.819 8.88523 151.809 9.17282C151.799 9.39483 151.799 10.0709 151.799 10.0709V13.9812V22.0138C151.799 22.0138 151.799 22.039 151.799 22.0541V25.7929C152.127 26.4993 152.512 27.1401 152.947 27.7153C153.493 28.4267 154.135 29.0422 154.848 29.5771C155.339 29.9807 155.87 30.3087 156.436 30.5761H156.452C156.533 30.6215 156.608 30.6619 156.694 30.6972C156.876 30.783 157.059 30.8738 157.256 30.9545C157.266 30.9545 157.276 30.9595 157.286 30.9646V14.3496H162.769V9.54115H157.317V8.34031C157.317 7.08396 157.539 6.21613 157.979 5.7368C158.419 5.25747 159.173 5.02033 160.23 5.02033C160.71 5.02033 161.15 5.0506 161.555 5.1162C161.959 5.17674 162.243 5.24233 162.769 5.44416V0.494465C161.484 0.141276 160.29 0 158.829 0C156.244 0 154.439 0.716469 153.412 2.14941H153.407Z" fill="white"/>
<path d="M94.9453 3.41092C94.9453 3.41092 94.4951 3.52192 94.1057 3.69852C92.7047 4.34435 91.5364 5.32823 90.6109 6.53412C90.1708 7.10427 89.7915 7.74505 89.4628 8.45648V21.3126C89.4628 22.2712 89.6802 24.6224 90.4743 26.2219C90.9244 27.125 91.4454 27.897 92.0928 28.5126C92.7654 29.1534 93.5241 29.6428 94.3535 30.001C94.6014 30.1221 94.8391 30.223 94.9453 30.2684C95.7747 30.6014 96.6902 30.8083 97.6865 30.9092C98.0962 30.9496 98.516 30.9748 98.956 30.9748C99.4365 30.9748 99.9321 30.9546 100.433 30.9092V26.1361C100.377 26.1412 100.322 26.1513 100.271 26.1563C100.266 26.1563 99.8917 26.1815 99.7147 26.1815C99.5528 26.1815 99.4011 26.1765 99.2494 26.1664C98.7031 26.1109 98.0456 26.0503 97.5348 25.8586C97.0392 25.6719 96.4727 25.3641 96.0681 24.9857C95.9164 24.8344 95.7798 24.6779 95.6584 24.5215C95.5016 24.3147 95.36 24.0826 95.2437 23.8505C95.2234 23.8051 95.0161 23.3308 94.9503 22.9019V14.3396H100.433V9.53118H94.9503V3.41092H94.9453Z" fill="white"/>
<path d="M58.8537 10.2275C58.1254 9.47062 57.1746 8.85506 55.9961 8.38078C55.1566 8.04272 54.231 7.83081 53.2245 7.7299C52.8148 7.68953 52.3951 7.66431 51.955 7.66431C50.3416 7.66431 48.7738 7.96704 47.2464 8.56746C45.7291 9.16788 44.3989 10.0155 43.2457 11.1104L43.5189 11.3526C44.8086 12.2406 46.2095 12.8108 47.7167 13.0429C47.8988 13.0731 48.0859 13.0933 48.268 13.1135C48.4653 13.0176 48.6625 12.9369 48.8547 12.8713C49.6589 12.5938 50.4428 12.4576 51.2015 12.4576C52.7643 12.4576 53.9579 12.836 54.7924 13.5878C55.6219 14.3396 56.0416 15.7372 56.0416 17.0188H52.9008C51.4645 17.0188 50.1242 17.1701 48.8749 17.4729C47.6257 17.7756 46.5383 18.2348 45.6026 18.8503C44.672 19.4659 43.9336 20.2328 43.3924 21.1511C42.8512 22.0694 42.5781 23.1441 42.5781 24.3752C42.5781 25.354 42.7501 26.2471 43.089 27.0544C43.4278 27.8617 43.9134 28.558 44.5456 29.1483C45.1778 29.7386 45.9212 30.1927 46.776 30.5055C47.6307 30.8184 48.5917 30.9798 49.6487 30.9798C50.7817 30.9798 51.8842 30.8537 52.9565 30.6014C54.0287 30.3491 55.0402 29.895 56.0012 29.2442V29.8849V31L56.8003 30.7124C58.2013 30.006 59.3696 29.0524 60.2951 27.8415C60.7352 27.2713 61.1145 26.6306 61.4432 25.9191V17.8715C61.4432 16.0349 61.251 14.6221 60.8667 13.4415C60.4772 12.2608 59.8096 11.1912 58.8588 10.2375L58.8537 10.2275ZM56.0012 24.9756C55.192 25.4549 54.3928 25.8182 53.5988 26.0705C52.8047 26.3228 52.0056 26.4489 51.1964 26.4489C50.2658 26.4489 49.5021 26.2118 48.9103 25.7325C48.3186 25.2531 48.0202 24.6376 48.0202 23.8858C48.0202 23.356 48.1669 22.9069 48.4551 22.5285C48.7434 22.1501 49.1379 21.8423 49.6285 21.6052C50.1191 21.368 50.7007 21.1965 51.3684 21.0956C52.036 20.9947 52.7491 20.9442 53.5027 20.9442H55.9961V24.9807L56.0012 24.9756Z" fill="white"/>
<path d="M145.315 12.2356C145.203 12.0943 145.097 11.953 144.981 11.8168C143.883 12.4727 142.938 13.2901 142.169 14.2942C141.901 14.6474 141.658 15.0308 141.43 15.4345C141.486 15.5152 141.547 15.5909 141.602 15.6716C142.295 16.7211 142.71 17.9673 142.71 19.3145C142.71 22.9826 139.731 25.9545 136.054 25.9545C132.377 25.9545 129.398 22.9826 129.398 19.3145C129.398 15.6464 132.377 12.6745 136.054 12.6745C137.111 12.6745 138.107 12.9268 138.998 13.3658L141.233 8.88029C139.67 8.10832 137.92 7.66431 136.059 7.66431C129.606 7.66431 124.376 12.8814 124.376 19.3195C124.376 25.7577 129.606 30.9748 136.059 30.9748C142.513 30.9748 147.742 25.7577 147.742 19.3195C147.742 16.6504 146.837 14.1983 145.32 12.2356H145.315Z" fill="url(#paint0_linear_1_59)"/>
<path d="M172.302 3.41092C172.302 3.41092 171.852 3.52192 171.463 3.69852C170.062 4.34435 168.893 5.32823 167.968 6.53412C167.528 7.10427 167.149 7.74505 166.82 8.45648V21.3126C166.82 22.2712 167.037 24.6224 167.831 26.2219C168.281 27.125 168.802 27.897 169.45 28.5126C170.122 29.1534 170.881 29.6428 171.711 30.001C171.958 30.1221 172.196 30.223 172.302 30.2684C173.132 30.6014 174.047 30.8083 175.044 30.9092C175.453 30.9496 175.873 30.9748 176.313 30.9748C176.793 30.9748 177.289 30.9546 177.79 30.9092V26.1361C177.734 26.1412 177.679 26.1513 177.628 26.1563C177.623 26.1563 177.249 26.1815 177.072 26.1815C176.91 26.1815 176.758 26.1765 176.606 26.1664C176.06 26.1109 175.403 26.0503 174.892 25.8586C174.396 25.6719 173.83 25.3641 173.425 24.9857C173.273 24.8344 173.137 24.6779 173.015 24.5215C172.859 24.3147 172.717 24.0826 172.601 23.8505C172.58 23.8051 172.373 23.3308 172.307 22.9019V14.3396H177.79V9.53118H172.307V3.41092H172.302Z" fill="white"/>
<defs>
<linearGradient id="paint0_linear_1_59" x1="124.371" y1="19.3195" x2="147.737" y2="19.3195" gradientUnits="userSpaceOnUse">
<stop stop-color="#2DACDC"/>
<stop offset="0.2" stop-color="#2AACC9"/>
<stop offset="0.77" stop-color="#35AD68"/>
</linearGradient>
</defs>
</svg>
